<svg xmlns="http://www.w3.org/2000/svg" viewBox="0 0 64 64">
  <!-- Body -->
  <ellipse cx="32" cy="38" rx="18" ry="20" fill="#FFD54F"/>
  <!-- Belly -->
  <ellipse cx="32" cy="44" rx="12" ry="13" fill="#FFECB3"/>
  <!-- Head -->
  <circle cx="32" cy="18" r="14" fill="#FFD54F"/>
  <!-- Eyes -->
  <circle cx="26" cy="16" r="2.5" fill="#333"/>
  <circle cx="38" cy="16" r="2.5" fill="#333"/>
  <!-- Eye shine -->
  <circle cx="27" cy="15" r="0.8" fill="#fff"/>
  <circle cx="39" cy="15" r="0.8" fill="#fff"/>
  <!-- Beak -->
  <path d="M29 21 L32 26 L35 21 Z" fill="#FF8F00"/>
  <!-- Blush -->
  <ellipse cx="22" cy="22" rx="3" ry="2" fill="#FFAB91" opacity="0.5"/>
  <ellipse cx="42" cy="22" rx="3" ry="2" fill="#FFAB91" opacity="0.5"/>
  <!-- Tuft/crest on head -->
  <path d="M30 5 Q32 0 34 5 Q36 1 37 6 Q33 3 30 5Z" fill="#FFC107"/>
  <!-- Feet -->
  <path d="M24 56 L20 62 L28 58 Z" fill="#FF8F00"/>
  <path d="M40 56 L44 62 L36 58 Z" fill="#FF8F00"/>
  <!-- Wings -->
  <ellipse cx="14" cy="38" rx="5" ry="10" fill="#FFC107" transform="rotate(-10 14 38)"/>
  <ellipse cx="50" cy="38" rx="5" ry="10" fill="#FFC107" transform="rotate(10 50 38)"/>
</svg>